<svg width="590" height="590" xmlns="http://www.w3.org/2000/svg"><title>background</title><path fill="none" d="M-1-1h582v402H-1z"/><g><title>Layer 1</title><path d="M261.3 12.6C151.6 25.9 59.3 101.5 25 206c-9.6 29.2-13 49.8-13.7 83-.6 27 .6 42.1 5.2 64.5 11.6 57.6 43 112.8 86.4 152.2 45 40.8 99.2 65.6 159.1 72.8 16.3 2 50.7 2 67 0C460.4 562.7 562.7 460.4 578.5 329c2-16.3 2-50.7 0-67-15.9-131.6-118.6-234.1-250-249.5-16.1-1.9-51.5-1.8-67.2.1zm2.2 254.5l138 138-7 6.5c-20.4 18.9-46.7 32.1-76.5 38.5-14.1 3.1-47.6 3.4-61.2.6-33.9-6.9-60.5-20.6-83.6-43.1-24-23.2-38.8-50-46.3-83.7l-2.4-10.4-.3-92.3c-.1-50.7.1-92.2.5-92.2s62.9 62.1 138.8 138.1zm68.8-135.2c32.3 7 58 20.6 80.5 42.5 24 23.2 38.8 50 46.3 83.7l2.4 10.4.3 92.2c.1 50.8-.1 92.3-.5 92.3s-62.9-62.1-138.8-138.1l-138-138 7-6.5c22.5-20.9 51.5-34.6 84.4-39.9 12.8-2.1 43.6-1.3 56.4 1.4z"/></g></svg>