<svg version="1" xmlns="http://www.w3.org/2000/svg" width="493.333" height="493.333" viewBox="0 0 493.333 493.333"><path d="M16.2 115.2l.3 92.3 2.4 10.4c7.5 33.5 20.9 58.1 44.5 81.6 24.1 24 48.7 37.3 82.6 44.7 9.1 1.9 13.4 2.2 32 2.2s22.9-.3 32-2.2c30.9-6.7 57.6-20.4 78.3-40.1 2.6-2.5 4.7-5 4.7-5.6C293 297 18.7 23 17.2 23c-1 0-1.2 17.5-1 92.2zm151.7-90.7C134 30 104.5 44.2 81.8 65.9c-2.7 2.5-4.8 5-4.8 5.6C77 73 351.3 347 352.8 347c1 0 1.2-17.5 1-92.3l-.3-92.2-2.4-10.4c-7.5-33.5-20.9-58.1-44.5-81.6-23.9-23.9-48.9-37.4-82.1-44.5-13-2.8-43.7-3.6-56.6-1.5z"/></svg>